# 3ds Max Wavefront OBJ Exporter v0.97b - (c)2007 guruware
# File Created: 10.01.2014 19:11:50

mtllib box.mtl

#
# object bottom
#

v  -1.0000 -1.0000 -1.0000
v  -1.0000 -1.0000 1.0000
v  1.0000 -1.0000 1.0000
v  1.0000 -1.0000 -1.0000
# 4 vertices

vn 0.0000 1.0000 -0.0000
# 1 vertex normals

vt 1.0000 2.0000 0.0000
vt 1.0000 0.0000 0.0000
vt -1.0000 0.0000 0.0000
vt -1.0000 2.0000 0.0000
# 4 texture coords

g bottom
usemtl Material__68
s off
f 1/1/1 2/2/1 3/3/1 4/4/1 
# 1 polygons

#
# object ceiling
#

v  1.0000 1.0000 1.0000
v  -1.0000 1.0000 1.0000
v  -1.0000 1.0000 -1.0000
v  1.0000 1.0000 -1.0000
# 4 vertices

vn 0.0000 -1.0000 -0.0000
# 1 vertex normals

vt 2.0000 0.0000 0.0000
vt 0.0000 0.0000 0.0000
vt 0.0000 2.0000 0.0000
vt 2.0000 2.0000 0.0000
# 4 texture coords

g ceiling
usemtl Material__55
s off
f 5/5/2 6/6/2 7/7/2 8/8/2 
# 1 polygons

#
# object right
#

v  1.0000 -1.0000 -1.0000
v  1.0000 -1.0000 1.0000
v  1.0000 1.0000 1.0000
v  1.0000 1.0000 -1.0000
# 4 vertices

vn -1.0000 0.0000 -0.0000
# 1 vertex normals

vt 2.0000 0.0000 0.0000
vt 0.0000 0.0000 0.0000
vt 0.0000 2.0000 0.0000
vt 2.0000 2.0000 0.0000
# 4 texture coords

g right
usemtl Material__67
s off
f 9/9/3 10/10/3 11/11/3 12/12/3 
# 1 polygons

#
# object left
#

v  -1.0000 -1.0000 1.0000
v  -1.0000 -1.0000 -1.0000
v  -1.0000 1.0000 -1.0000
v  -1.0000 1.0000 1.0000
# 4 vertices

vn 1.0000 0.0000 -0.0000
# 1 vertex normals

vt 2.0000 0.0000 0.0000
vt 0.0000 0.0000 0.0000
vt 0.0000 2.0000 0.0000
vt 2.0000 2.0000 0.0000
# 4 texture coords

g left
usemtl Material__67
s off
f 13/13/4 14/14/4 15/15/4 16/16/4 
# 1 polygons

#
# object back
#

v  -1.0000 -1.0000 -1.0000
v  1.0000 -1.0000 -1.0000
v  1.0000 1.0000 -1.0000
v  -1.0000 1.0000 -1.0000
# 4 vertices

vn 0.0000 0.0000 1.0000
# 1 vertex normals

vt 2.0000 0.0000 0.0000
vt 0.0000 0.0000 0.0000
vt 0.0000 2.0000 0.0000
vt 2.0000 2.0000 0.0000
# 4 texture coords

g back
usemtl Material__68
s off
f 17/17/5 18/18/5 19/19/5 20/20/5 
# 1 polygons

